<?xml version="1.0" encoding="UTF-8"?>
<svg version="1.1" xmlns="http://www.w3.org/2000/svg" width="72" height="72">
<path d="M0 0 C23 0 23 0 29 3 C34.15369153 8.57155841 34.20646367 13.10179495 34.25 20.3125 C34.270625 21.15490234 34.29125 21.99730469 34.3125 22.86523438 C34.34471302 28.01529102 33.86814514 31.54376494 31 36 C25.17268214 41.67789946 22.23392738 40 13 40 C13 47.92 13 55.84 13 64 C8.71 64 4.42 64 0 64 C0 42.88 0 21.76 0 0 Z M13 12 C13 17.61 13 23.22 13 29 C15.31 29 17.62 29 20 29 C21.4241906 26.15161879 21.16995508 23.67212092 21.1875 20.5 C21.20876953 18.75203125 21.20876953 18.75203125 21.23046875 16.96875 C21.31443714 13.88093282 21.31443714 13.88093282 19 12 C17.02 12 15.04 12 13 12 Z " fill="#07090D" transform="translate(36,3)"/>
<path d="M0 0 C3.96 0 7.92 0 12 0 C12.07429269 7.56223413 12.12867057 15.12425461 12.16479492 22.68676758 C12.17985844 25.2580943 12.2003132 27.82939543 12.22631836 30.40063477 C12.26280761 34.10178962 12.27975121 37.802604 12.29296875 41.50390625 C12.30845261 42.64896133 12.32393646 43.79401642 12.33988953 44.97377014 C12.3411742 51.10022185 12.0446238 55.62552885 9 61 C4.46869313 65.2481002 -0.25152791 65.33235743 -6.19921875 65.29296875 C-11.18072626 64.77189056 -14.46884652 62.53115348 -18 59 C-17.89281521 55.89164115 -16.71513207 54.64391509 -14.75 52.1875 C-12 50 -12 50 -9.5625 50.125 C-8.2940625 50.558125 -8.2940625 50.558125 -7 51 C-5.02 51.33 -3.04 51.66 -1 52 C-0.67 34.84 -0.34 17.68 0 0 Z " fill="#080A0E" transform="translate(19,3)"/>
<path d="M0 0 C23 0 23 0 29 3 C34.15369153 8.57155841 34.20646367 13.10179495 34.25 20.3125 C34.270625 21.15490234 34.29125 21.99730469 34.3125 22.86523438 C34.34471302 28.01529102 33.86814514 31.54376494 31 36 C25.17268214 41.67789946 22.23392738 40 13 40 C13 47.92 13 55.84 13 64 C8.71 64 4.42 64 0 64 C0 42.88 0 21.76 0 0 Z M2 2 C2 22.13 2 42.26 2 63 C4.97 63 7.94 63 11 63 C11 55.08 11 47.16 11 39 C13.97 39 16.94 39 20 39 C24.13498714 37.77983986 26.33547395 36.7613365 29.171875 33.51171875 C31.60226116 28.84309234 31.55493901 25.11618158 31.4375 19.9375 C31.44458984 19.05255859 31.45167969 18.16761719 31.45898438 17.25585938 C31.41181447 12.41912946 31.2931261 8.8119556 28 5 C20.97060008 0.19926486 20.97060008 0.19926486 2 2 Z " fill="#7C8CB3" transform="translate(36,3)"/>
<path d="M0 0 C3.96 0 7.92 0 12 0 C12.07429269 7.56223413 12.12867057 15.12425461 12.16479492 22.68676758 C12.17985844 25.2580943 12.2003132 27.82939543 12.22631836 30.40063477 C12.26280761 34.10178962 12.27975121 37.802604 12.29296875 41.50390625 C12.30845261 42.64896133 12.32393646 43.79401642 12.33988953 44.97377014 C12.3411742 51.10022185 12.0446238 55.62552885 9 61 C4.46869313 65.2481002 -0.25152791 65.33235743 -6.19921875 65.29296875 C-11.18072626 64.77189056 -14.46884652 62.53115348 -18 59 C-17.89281521 55.89164115 -16.71513207 54.64391509 -14.75 52.1875 C-12 50 -12 50 -9.5625 50.125 C-8.2940625 50.558125 -8.2940625 50.558125 -7 51 C-5.02 51.33 -3.04 51.66 -1 52 C-0.67 34.84 -0.34 17.68 0 0 Z M1 1 C0.98969254 1.63671127 0.97938507 2.27342255 0.96876526 2.9294281 C0.86093669 9.53126798 0.74632039 16.13296478 0.62768555 22.73461914 C0.58426057 25.20138569 0.54259128 27.66818378 0.50268555 30.13500977 C0.44516555 33.67213466 0.38141925 37.20909966 0.31640625 40.74609375 C0.29969376 41.85649521 0.28298126 42.96689667 0.26576233 44.11094666 C0.24581711 45.13192947 0.22587189 46.15291229 0.20532227 47.20483398 C0.18977798 48.10862289 0.1742337 49.0124118 0.15821838 49.94358826 C0 52 0 52 -1 53 C-3.32817964 53.36760731 -5.6618385 53.70241581 -8 54 C-8 53.34 -8 52.68 -8 52 C-11.35595828 52.59927826 -13.37801226 53.84622436 -16 56 C-14.99834879 58.73177604 -14.41190558 59.7951255 -11.76171875 61.11328125 C-6.30540061 62.8651684 -0.33768212 62.92533251 5 60.8125 C8.00072481 58.09309314 9.80064402 55.44412719 10.36076355 51.38664246 C10.35410172 50.45620621 10.34743988 49.52576996 10.34057617 48.56713867 C10.34034958 47.50641647 10.34012299 46.44569427 10.33988953 45.35282898 C10.32440567 44.2193251 10.30892181 43.08582123 10.29296875 41.91796875 C10.28660149 40.16399529 10.28660149 40.16399529 10.28010559 38.37458801 C10.26333285 34.645323 10.22568192 30.91660128 10.1875 27.1875 C10.17245141 24.65690885 10.15876331 22.12630923 10.14648438 19.59570312 C10.11343383 13.39695051 10.0632477 7.19851408 10 1 C7.03 1 4.06 1 1 1 Z " fill="#8796B9" transform="translate(19,3)"/>
<path d="M0 0 C2.75712273 4.1356841 2.33083126 7.45471644 2.3125 12.3125 C2.32861328 13.15490234 2.34472656 13.99730469 2.36132812 14.86523438 C2.36534476 20.00250678 1.85294701 23.55677392 -1 28 C-6.82731786 33.67789946 -9.76607262 32 -19 32 C-19 39.92 -19 47.84 -19 56 C-23.29 56 -27.58 56 -32 56 C-32 55.67 -32 55.34 -32 55 C-28.37 55 -24.74 55 -21 55 C-21 47.08 -21 39.16 -21 31 C-18.958125 30.773125 -16.91625 30.54625 -14.8125 30.3125 C-9.28023649 29.58922996 -9.28023649 29.58922996 -4.8125 26.5625 C-2.14665381 22.79354504 -0.75351855 20.72176002 -0.5859375 16.11328125 C-0.54726562 15.17548828 -0.50859375 14.23769531 -0.46875 13.27148438 C-0.42234375 11.80678711 -0.42234375 11.80678711 -0.375 10.3125 C-0.33632812 9.32443359 -0.29765625 8.33636719 -0.2578125 7.31835938 C-0.16354133 4.87909293 -0.07793782 2.43983405 0 0 Z " fill="#AFB9D1" transform="translate(68,11)"/>
<path d="M0 0 C2.97 0 5.94 0 9 0 C11.55948999 2.55948999 11.26068731 4.27207195 11.2734375 7.765625 C11.26570313 8.50296875 11.25796875 9.2403125 11.25 10 C11.25773437 10.73734375 11.26546875 11.4746875 11.2734375 12.234375 C11.2533196 17.7466804 11.2533196 17.7466804 9 20 C6.03 20 3.06 20 0 20 C0 13.4 0 6.8 0 0 Z M2 2 C2 7.61 2 13.22 2 19 C4.31 19 6.62 19 9 19 C10.4241906 16.15161879 10.16995508 13.67212092 10.1875 10.5 C10.20876953 8.75203125 10.20876953 8.75203125 10.23046875 6.96875 C10.31443714 3.88093282 10.31443714 3.88093282 8 2 C6.02 2 4.04 2 2 2 Z " fill="#98A6C8" transform="translate(47,13)"/>
<path d="M0 0 C0.33 0 0.66 0 1 0 C1.02533545 7.61718028 1.04286075 15.23434972 1.05493164 22.8515625 C1.05996332 25.44336351 1.06678927 28.03516167 1.07543945 30.62695312 C1.08755591 34.35026755 1.09323995 38.07354447 1.09765625 41.796875 C1.10281754 42.95741394 1.10797882 44.11795288 1.11329651 45.31365967 C1.11337204 46.39447815 1.11344757 47.47529663 1.11352539 48.58886719 C1.115746 49.53928894 1.11796661 50.48971069 1.12025452 51.46893311 C1.0096099 53.79773487 0.66082137 55.77207276 0 58 C-0.99 58 -1.98 58 -3 58 C-3 58.66 -3 59.32 -3 60 C-3.66 59.67 -4.32 59.34 -5 59 C-4.35256836 58.26120605 -3.70513672 57.52241211 -3.03808594 56.76123047 C0.16581652 51.91900492 -0.39673658 46.43299812 -0.390625 40.8203125 C-0.37408875 39.6524118 -0.35755249 38.48451111 -0.34051514 37.28121948 C-0.29205147 33.56242606 -0.27066668 29.84404157 -0.25 26.125 C-0.22183913 23.59893778 -0.19191155 21.07289459 -0.16015625 18.546875 C-0.08629265 12.36465752 -0.03464045 6.18255498 0 0 Z " fill="#B0B5C1" transform="translate(30,3)"/>
<path d="M0 0 C3.87460078 -0.14584726 7.74849117 -0.23425444 11.625 -0.3125 C12.71941406 -0.35439453 13.81382813 -0.39628906 14.94140625 -0.43945312 C24.08018092 -0.57791941 24.08018092 -0.57791941 27.75 1.78125 C31.15486526 6.65209892 30.65071105 11.02610261 30.375 16.8125 C30.34792969 17.88693359 30.32085937 18.96136719 30.29296875 20.06835938 C30.22241045 22.71429568 30.12388756 25.3561124 30 28 C29.67 28 29.34 28 29 28 C28.96261719 26.68644531 28.92523438 25.37289063 28.88671875 24.01953125 C28.82104343 22.28382636 28.75459663 20.54815053 28.6875 18.8125 C28.66494141 17.94818359 28.64238281 17.08386719 28.61914062 16.19335938 C28.41739777 11.40655152 28.2262415 7.80209238 25 4 C21.96510453 2.14059512 19.54788108 1.71516638 16.015625 1.5859375 C14.61376953 1.52792969 14.61376953 1.52792969 13.18359375 1.46875 C12.21550781 1.4378125 11.24742188 1.406875 10.25 1.375 C8.77466797 1.31699219 8.77466797 1.31699219 7.26953125 1.2578125 C4.84653963 1.16371574 2.42355204 1.07807672 0 1 C0 0.67 0 0.34 0 0 Z " fill="#617093" transform="translate(38,4)"/>
<path d="M0 0 C0.33 0 0.66 0 1 0 C1.3125 2.75 1.3125 2.75 1 6 C-1.0625 8.375 -1.0625 8.375 -4 10 C-7.8125 10.25 -7.8125 10.25 -11 10 C-10.1646875 9.6596875 -10.1646875 9.6596875 -9.3125 9.3125 C-5.28030943 7.02395941 -2.54941401 3.82412102 0 0 Z " fill="#93A0C1" transform="translate(67,32)"/>
<path d="M0 0 C2.3125 0.9375 2.3125 0.9375 4.3125 2.9375 C2.95125 2.8446875 2.95125 2.8446875 1.5625 2.75 C-1.98779087 2.95482447 -3.24836737 3.40455458 -5.6875 5.9375 C-5.6875 6.9275 -5.6875 7.9175 -5.6875 8.9375 C-6.6775 8.9375 -7.6675 8.9375 -8.6875 8.9375 C-8.34407251 5.84665263 -7.42794345 4.61305431 -5.4375 2.125 C-2.6875 -0.0625 -2.6875 -0.0625 0 0 Z " fill="#8D9DC3" transform="translate(9.6875,53.0625)"/>
</svg>
